<svg xmlns="http://www.w3.org/2000/svg" xmlns:xlink="http://www.w3.org/1999/xlink" xml:space="preserve" version="1.1" style="shape-rendering:geometricPrecision;text-rendering:geometricPrecision;image-rendering:optimizeQuality;" viewBox="0 0 846.66 846.66" x="0px" y="0px" fill-rule="evenodd" clip-rule="evenodd"><defs><style type="text/css">
   
    .fil0 {fill:black;fill-rule:nonzero}
   
  </style></defs><g><path class="fil0" d="M423.33 76.33c191.64,0 347,155.36 347,347 0,191.64 -155.36,347 -347,347 -191.64,0 -347,-155.36 -347,-347 0,-191.64 155.36,-347 347,-347zm170.42 454.84c29.12,11.25 53.02,31.65 68.79,57.15 32.39,-46.87 51.37,-103.71 51.37,-164.99 0,-160.49 -130.09,-290.58 -290.58,-290.58 -160.49,0 -290.58,130.09 -290.58,290.58 0,61.2 18.94,117.98 51.25,164.81 16.7,-27.01 42.59,-48.13 74.34,-58.92 -5.5,-17.89 -8.58,-37.1 -9.4,-56.85 -2.04,-49 9.86,-101.39 33.49,-145.09 72.33,-133.82 215.45,-132 287.37,1.06 23.7,43.85 35.71,96.29 33.68,145.24 -0.84,20.06 -4.03,39.54 -9.73,57.59zm-190.33 -16.74l40.91 0 0 14.18 -40.91 0 0 -14.18zm-41.03 -7.07c2.56,-6.65 5.59,-13.84 9.73,-19.6 6.96,-9.7 14.97,-12.27 26.38,-12.77 16.14,-0.7 36.31,-0.7 52.45,0 11.43,0.5 19.41,3.06 26.38,12.77 4.14,5.76 7.17,12.95 9.74,19.6 7.69,-9.64 30.75,-35.49 29.69,-49.98 -0.25,-3.47 -0.54,-7.49 0.72,-13.64 1.58,-7.67 16.65,-23.34 -4.85,-25.84 -9.81,-1.15 -10.92,0.99 -12.63,10.38 -5.45,29.91 -43.82,32.57 -57.45,7.72 -10.78,-19.65 -28.03,-21.88 -37.59,0.1 -10.11,23.24 -49.61,24.56 -55.51,-7.82 -3.79,-20.81 -31.28,-10.01 -21.73,8.48 4.81,9.34 5.88,8 4.97,20.62 -1.05,14.49 22.01,40.34 29.7,49.98zm110.48 16.08c-2.59,-7.37 -6.33,-18.42 -10.83,-24.68 -3.3,-4.6 -6.58,-4.7 -11.9,-4.94 -8.24,-0.36 -42.59,-0.36 -50.83,0 -5.32,0.23 -8.6,0.35 -11.9,4.94 -4.5,6.26 -8.24,17.31 -10.83,24.68 13.02,12.71 30.1,15.36 48.14,15.36 18.06,0 35.13,-2.65 48.15,-15.36zm-168.26 -82.67c-0.87,-0.69 -3.22,0.23 -6.03,1.92 -55.25,33.2 1.79,113.25 91.71,110.85 -75.47,-45.82 -70.08,-100.41 -85.68,-112.77zm237.45 0c-2.07,1.63 2.49,64.01 -90.18,113.27 64.43,1.71 173.47,-64.91 96.21,-111.35 -2.82,-1.69 -5.16,-2.61 -6.03,-1.92z"/></g><text x="0" y="861.66" fill="#000000" font-size="5px" font-weight="bold" font-family="'Helvetica Neue', Helvetica, Arial-Unicode, Arial, Sans-serif">Created by sultan mohammed</text></svg>